<mxfile host="app.diagrams.net" modified="2024-07-03T07:39:49.862Z" agent="Mozilla/5.0 (Windows NT 10.0; Win64; x64) AppleWebKit/537.36 (KHTML, like Gecko) Chrome/126.0.0.0 Safari/537.36" version="24.6.4" etag="t9C5vXSU7VBcQgrO94CX" type="github">
  <diagram name="Page-1" id="uHCma_FmaCSKborZXaRn">
    <mxGraphModel>
      <root>
        <mxCell id="0" />
        <mxCell id="1" parent="0" />
      </root>
    </mxGraphModel>
  </diagram>
</mxfile>
